# Blender v2.81 (sub 16) OBJ File: ''
# www.blender.org
o Cube
v 0.600092 1.645580 -0.600092
v 1.000000 -1.000000 -1.000000
v 0.600092 1.645580 0.600092
v 1.000000 -1.000000 1.000000
v -0.600092 1.645580 -0.600092
v -1.000000 -1.000000 -1.000000
v -0.600092 1.645580 0.600092
v -1.000000 -1.000000 1.000000
v 1.000000 1.000000 1.000000
v -1.000000 1.000000 1.000000
v 1.000000 1.000000 -1.000000
v -1.000000 1.000000 -1.000000
v 0.600092 1.951478 0.600092
v -0.600092 1.951478 0.600092
v 0.600092 1.951478 -0.600092
v -0.600092 1.951478 -0.600092
v 0.600092 1.000000 0.600092
v -0.600092 1.000000 0.600092
v 0.600092 1.000000 -0.600092
v -0.600092 1.000000 -0.600092
v 0.600092 2.597058 0.600092
v -0.600092 2.597058 0.600092
v 0.600092 2.597058 -0.600092
v -0.600092 2.597058 -0.600092
v -0.600092 1.645580 0.600092
v -0.600092 1.951478 0.600092
v -0.600092 1.951478 -0.600092
v -0.600092 1.645580 -0.600092
v 0.600092 1.645580 0.600092
v 0.600092 1.951478 0.600092
v 0.600092 1.951478 -0.600092
v 0.600092 1.645580 -0.600092
v -0.600092 1.645580 0.600092
v -0.600092 1.951478 0.600092
v -0.600092 1.951478 -0.600092
v -0.600092 1.645580 -0.600092
v 0.600092 1.645580 0.600092
v 0.600092 1.951478 0.600092
v 0.600092 1.951478 -0.600092
v 0.600092 1.645580 -0.600092
v -0.600092 1.645580 0.600092
v -0.600092 1.951478 0.600092
v -0.600092 1.951478 -0.600092
v -0.600092 1.645580 -0.600092
v 0.600092 1.645580 0.600092
v 0.600092 1.951478 0.600092
v 0.600092 1.951478 -0.600092
v 0.600092 1.645580 -0.600092
v -0.527227 1.664152 0.527227
v -0.527227 1.932906 0.527227
v -0.527227 1.932906 -0.527227
v -0.527227 1.664152 -0.527227
v 0.527227 1.664152 0.527227
v 0.527227 1.932906 0.527227
v 0.527227 1.932906 -0.527227
v 0.527227 1.664152 -0.527227
v 0.850876 -0.850876 1.000000
v 0.850876 0.850876 1.000000
v -0.850876 0.850876 1.000000
v -0.850876 -0.850876 1.000000
v -1.000000 -0.850876 0.850876
v -1.000000 0.850876 0.850876
v -1.000000 0.850876 -0.850876
v -1.000000 -0.850876 -0.850876
v 1.000000 -0.850876 -0.850876
v 1.000000 0.850876 -0.850876
v 1.000000 0.850876 0.850876
v 1.000000 -0.850876 0.850876
v -0.850876 -0.850876 -1.000000
v -0.850876 0.850876 -1.000000
v 0.850876 0.850876 -1.000000
v 0.850876 -0.850876 -1.000000
v 0.808332 0.808332 0.950000
v 0.808332 -0.808332 0.950000
v -0.808332 -0.808332 0.950000
v -0.808332 0.808332 0.950000
v -0.950000 -0.808332 0.808332
v -0.950000 0.808332 0.808332
v -0.950000 -0.808332 -0.808332
v -0.950000 0.808332 -0.808332
v 0.950000 0.808332 -0.808332
v 0.950000 -0.808332 -0.808332
v 0.950000 -0.808332 0.808332
v 0.950000 0.808332 0.808332
v -0.808332 0.808332 -0.950000
v -0.808332 -0.808332 -0.950000
v 0.808332 -0.808332 -0.950000
v 0.808332 0.808332 -0.950000
v 0.718839 -0.718839 0.950000
v 0.718839 0.718839 0.950000
v -0.718839 0.718839 0.950000
v -0.718839 -0.718839 0.950000
v -0.950000 -0.718839 0.718839
v -0.950000 0.718839 0.718839
v -0.950000 0.718839 -0.718839
v -0.950000 -0.718839 -0.718839
v 0.950000 -0.718839 -0.718839
v 0.950000 0.718839 -0.718839
v 0.950000 0.718839 0.718839
v 0.950000 -0.718839 0.718839
v -0.718839 -0.718839 -0.950000
v -0.718839 0.718839 -0.950000
v 0.718839 0.718839 -0.950000
v 0.718839 -0.718839 -0.950000
v 0.714386 -0.714386 0.995973
v 0.714386 0.714386 0.995973
v -0.714386 0.714386 0.995973
v -0.714386 -0.714386 0.995973
v -0.995973 -0.714386 0.714386
v -0.995973 0.714386 0.714386
v -0.995973 0.714386 -0.714386
v -0.995973 -0.714386 -0.714386
v 0.995973 -0.714386 -0.714386
v 0.995973 0.714386 -0.714386
v 0.995973 0.714386 0.714386
v 0.995973 -0.714386 0.714386
v -0.714386 -0.714386 -0.995973
v -0.714386 0.714386 -0.995973
v 0.714386 0.714386 -0.995973
v 0.714386 -0.714386 -0.995973
v 0.600092 2.597058 0.600092
v -0.600092 2.597058 0.600092
v 0.600092 2.597058 -0.600092
v -0.600092 2.597058 -0.600092
v 0.468685 2.597058 -0.468685
v -0.468685 2.597058 -0.468685
v -0.468685 2.597058 0.468685
v 0.468685 2.597058 0.468685
v -0.468685 1.175901 -0.468685
v 0.468685 1.175901 -0.468685
v 0.468685 1.175901 0.468685
v -0.468685 1.175901 0.468685
v -0.841892 -1.000000 -0.841892
v 0.841892 -1.000000 -0.841892
v 0.841892 -1.000000 0.841892
v -0.841892 -1.000000 0.841892
v 0.841892 -0.470787 -0.841892
v -0.841892 -0.470787 -0.841892
v -0.841892 -0.470787 0.841892
v 0.841892 -0.470787 0.841892
v -0.244551 -0.470787 -0.244551
v 0.244551 -0.470787 -0.244551
v 0.244551 -0.470787 0.244551
v -0.244551 -0.470787 0.244551
v 0.244551 -5.524945 -0.244551
v -0.244551 -5.524945 -0.244551
v -0.244551 -5.524945 0.244551
v 0.244551 -5.524945 0.244551
v 0.906020 -5.791865 -0.906020
v -0.906020 -5.791865 -0.906020
v -0.906020 -5.791865 0.906020
v 0.906020 -5.791865 0.906020
vn 0.0000 0.0000 1.0000
vn 0.6480 0.7616 0.0000
vn 0.0000 -0.7616 0.6480
vn 0.0000 0.0000 -1.0000
vn 0.7616 0.0000 -0.6480
vn -0.6480 0.7616 0.0000
vn 0.0000 1.0000 -0.0000
vn 1.0000 0.0000 0.0000
vn -1.0000 0.0000 0.0000
vn 0.0000 0.9690 -0.2470
vn 0.2470 -0.9690 0.0000
vn 0.0000 -0.9690 -0.2470
vn 0.0000 0.9690 0.2470
vn 0.2470 0.9690 0.0000
vn -0.2470 -0.9690 0.0000
vn 0.0000 -0.9690 0.2470
vn -0.2470 0.9690 0.0000
vn -0.6480 -0.7616 0.0000
vn 0.0000 0.7616 -0.6480
vn 0.7616 0.0000 0.6480
vn 0.6480 -0.7616 0.0000
vn -0.6480 0.0000 0.7616
vn 0.0000 -0.7616 -0.6480
vn 0.6480 0.0000 -0.7616
vn -0.7616 0.0000 -0.6480
vn -0.7616 0.0000 0.6480
vn -0.6480 0.0000 -0.7616
vn 0.0000 0.7616 0.6480
vn 0.6480 0.0000 0.7616
vn 0.9953 0.0000 0.0964
vn 0.0000 0.9953 0.0964
vn -0.9953 0.0000 0.0964
vn 0.0000 -0.9953 0.0964
vn -0.0964 0.0000 0.9953
vn -0.0964 0.9953 0.0000
vn -0.0964 0.0000 -0.9953
vn -0.0964 -0.9953 0.0000
vn 0.0964 0.0000 -0.9953
vn 0.0964 0.9953 0.0000
vn 0.0964 0.0000 0.9953
vn 0.0964 -0.9953 0.0000
vn -0.9953 0.0000 -0.0964
vn 0.0000 0.9953 -0.0964
vn 0.9953 0.0000 -0.0964
vn 0.0000 -0.9953 -0.0964
vn 0.0000 -1.0000 0.0000
vn 0.0000 0.9273 0.3742
vn -0.3742 0.9273 0.0000
vn 0.3742 0.9273 0.0000
vn 0.0000 0.9273 -0.3742
s off
f 7//1 29//1 25//1
f 65//2 83//2 68//2
f 59//3 73//3 58//3
f 136//4 140//4 135//4
f 70//5 86//5 69//5
f 61//6 79//6 64//6
f 18//7 9//7 17//7
f 17//7 11//7 19//7
f 20//7 10//7 18//7
f 19//7 12//7 20//7
f 23//1 124//1 123//1
f 5//1 25//1 28//1
f 13//1 26//1 30//1
f 14//1 27//1 26//1
f 7//1 17//1 3//1
f 3//8 19//8 1//8
f 5//9 18//9 7//9
f 1//4 20//4 5//4
f 13//1 22//1 14//1
f 15//8 21//8 13//8
f 14//9 24//9 16//9
f 16//4 23//4 15//4
f 25//1 37//1 33//1
f 28//1 33//1 36//1
f 30//1 34//1 38//1
f 26//1 35//1 34//1
f 16//1 31//1 27//1
f 15//1 30//1 31//1
f 1//1 28//1 32//1
f 3//1 32//1 29//1
f 34//1 43//1 42//1
f 37//1 48//1 45//1
f 40//1 44//1 48//1
f 39//1 46//1 47//1
f 27//1 39//1 35//1
f 31//1 38//1 39//1
f 32//1 36//1 40//1
f 29//1 40//1 37//1
f 44//10 56//10 48//10
f 46//11 55//11 47//11
f 47//12 51//12 43//12
f 45//13 49//13 41//13
f 38//1 42//1 46//1
f 36//1 41//1 44//1
f 33//1 45//1 41//1
f 35//1 47//1 43//1
f 49//9 51//9 52//9
f 53//1 50//1 49//1
f 52//4 55//4 56//4
f 56//8 54//8 53//8
f 48//14 53//14 45//14
f 43//15 50//15 42//15
f 42//16 54//16 46//16
f 41//17 52//17 44//17
f 9//1 57//1 4//1
f 10//1 58//1 9//1
f 8//1 59//1 10//1
f 4//1 60//1 8//1
f 10//9 61//9 8//9
f 12//9 62//9 10//9
f 6//9 63//9 12//9
f 8//9 64//9 6//9
f 11//8 65//8 2//8
f 9//8 66//8 11//8
f 4//8 67//8 9//8
f 2//8 68//8 4//8
f 12//4 69//4 6//4
f 11//4 70//4 12//4
f 2//4 71//4 11//4
f 6//4 72//4 2//4
f 106//1 108//1 105//1
f 110//9 112//9 109//9
f 114//8 116//8 113//8
f 118//4 120//4 117//4
f 63//18 78//18 62//18
f 69//19 87//19 72//19
f 60//20 76//20 59//20
f 67//21 81//21 66//21
f 64//22 80//22 63//22
f 71//23 85//23 70//23
f 68//24 84//24 67//24
f 72//25 88//25 71//25
f 58//26 74//26 57//26
f 62//27 77//27 61//27
f 57//28 75//28 60//28
f 66//29 82//29 65//29
f 73//1 89//1 74//1
f 76//1 90//1 73//1
f 75//1 91//1 76//1
f 74//1 92//1 75//1
f 78//9 93//9 77//9
f 80//9 94//9 78//9
f 79//9 95//9 80//9
f 77//9 96//9 79//9
f 81//8 97//8 82//8
f 84//8 98//8 81//8
f 83//8 99//8 84//8
f 82//8 100//8 83//8
f 85//4 101//4 86//4
f 88//4 102//4 85//4
f 87//4 103//4 88//4
f 86//4 104//4 87//4
f 90//30 105//30 89//30
f 91//31 106//31 90//31
f 92//32 107//32 91//32
f 89//33 108//33 92//33
f 94//34 109//34 93//34
f 95//35 110//35 94//35
f 96//36 111//36 95//36
f 93//37 112//37 96//37
f 98//38 113//38 97//38
f 99//39 114//39 98//39
f 100//40 115//40 99//40
f 97//41 116//41 100//41
f 102//42 117//42 101//42
f 103//43 118//43 102//43
f 104//44 119//44 103//44
f 101//45 120//45 104//45
f 125//9 131//9 128//9
f 21//1 123//1 121//1
f 24//1 122//1 124//1
f 22//1 121//1 122//1
f 124//7 125//7 123//7
f 122//7 126//7 124//7
f 121//7 127//7 122//7
f 123//7 128//7 121//7
f 129//7 131//7 130//7
f 127//8 129//8 126//8
f 126//1 130//1 125//1
f 128//4 132//4 127//4
f 2//46 133//46 6//46
f 4//46 134//46 2//46
f 8//46 135//46 4//46
f 6//46 136//46 8//46
f 143//8 145//8 142//8
f 133//8 139//8 136//8
f 135//9 137//9 134//9
f 134//1 138//1 133//1
f 137//46 141//46 138//46
f 140//46 142//46 137//46
f 139//46 143//46 140//46
f 138//46 144//46 139//46
f 147//47 152//47 148//47
f 142//4 146//4 141//4
f 144//1 148//1 143//1
f 141//9 147//9 144//9
f 149//46 151//46 150//46
f 146//48 151//48 147//48
f 148//49 149//49 145//49
f 145//50 150//50 146//50
f 7//1 3//1 29//1
f 65//2 82//2 83//2
f 59//3 76//3 73//3
f 136//4 139//4 140//4
f 70//5 85//5 86//5
f 61//6 77//6 79//6
f 18//7 10//7 9//7
f 17//7 9//7 11//7
f 20//7 12//7 10//7
f 19//7 11//7 12//7
f 23//1 24//1 124//1
f 5//1 7//1 25//1
f 13//1 14//1 26//1
f 14//1 16//1 27//1
f 7//1 18//1 17//1
f 3//8 17//8 19//8
f 5//9 20//9 18//9
f 1//4 19//4 20//4
f 13//1 21//1 22//1
f 15//8 23//8 21//8
f 14//9 22//9 24//9
f 16//4 24//4 23//4
f 25//1 29//1 37//1
f 28//1 25//1 33//1
f 30//1 26//1 34//1
f 26//1 27//1 35//1
f 16//1 15//1 31//1
f 15//1 13//1 30//1
f 1//1 5//1 28//1
f 3//1 1//1 32//1
f 34//1 35//1 43//1
f 37//1 40//1 48//1
f 40//1 36//1 44//1
f 39//1 38//1 46//1
f 27//1 31//1 39//1
f 31//1 30//1 38//1
f 32//1 28//1 36//1
f 29//1 32//1 40//1
f 44//10 52//10 56//10
f 46//11 54//11 55//11
f 47//12 55//12 51//12
f 45//13 53//13 49//13
f 38//1 34//1 42//1
f 36//1 33//1 41//1
f 33//1 37//1 45//1
f 35//1 39//1 47//1
f 49//9 50//9 51//9
f 53//1 54//1 50//1
f 52//4 51//4 55//4
f 56//8 55//8 54//8
f 48//14 56//14 53//14
f 43//15 51//15 50//15
f 42//16 50//16 54//16
f 41//17 49//17 52//17
f 9//1 58//1 57//1
f 10//1 59//1 58//1
f 8//1 60//1 59//1
f 4//1 57//1 60//1
f 10//9 62//9 61//9
f 12//9 63//9 62//9
f 6//9 64//9 63//9
f 8//9 61//9 64//9
f 11//8 66//8 65//8
f 9//8 67//8 66//8
f 4//8 68//8 67//8
f 2//8 65//8 68//8
f 12//4 70//4 69//4
f 11//4 71//4 70//4
f 2//4 72//4 71//4
f 6//4 69//4 72//4
f 106//1 107//1 108//1
f 110//9 111//9 112//9
f 114//8 115//8 116//8
f 118//4 119//4 120//4
f 63//18 80//18 78//18
f 69//19 86//19 87//19
f 60//20 75//20 76//20
f 67//21 84//21 81//21
f 64//22 79//22 80//22
f 71//23 88//23 85//23
f 68//24 83//24 84//24
f 72//25 87//25 88//25
f 58//26 73//26 74//26
f 62//27 78//27 77//27
f 57//28 74//28 75//28
f 66//29 81//29 82//29
f 73//1 90//1 89//1
f 76//1 91//1 90//1
f 75//1 92//1 91//1
f 74//1 89//1 92//1
f 78//9 94//9 93//9
f 80//9 95//9 94//9
f 79//9 96//9 95//9
f 77//9 93//9 96//9
f 81//8 98//8 97//8
f 84//8 99//8 98//8
f 83//8 100//8 99//8
f 82//8 97//8 100//8
f 85//4 102//4 101//4
f 88//4 103//4 102//4
f 87//4 104//4 103//4
f 86//4 101//4 104//4
f 90//30 106//30 105//30
f 91//31 107//31 106//31
f 92//32 108//32 107//32
f 89//33 105//33 108//33
f 94//34 110//34 109//34
f 95//35 111//35 110//35
f 96//36 112//36 111//36
f 93//37 109//37 112//37
f 98//38 114//38 113//38
f 99//39 115//39 114//39
f 100//40 116//40 115//40
f 97//41 113//41 116//41
f 102//42 118//42 117//42
f 103//43 119//43 118//43
f 104//44 120//44 119//44
f 101//45 117//45 120//45
f 125//9 130//9 131//9
f 21//1 23//1 123//1
f 24//1 22//1 122//1
f 22//1 21//1 121//1
f 124//7 126//7 125//7
f 122//7 127//7 126//7
f 121//7 128//7 127//7
f 123//7 125//7 128//7
f 129//7 132//7 131//7
f 127//8 132//8 129//8
f 126//1 129//1 130//1
f 128//4 131//4 132//4
f 2//46 134//46 133//46
f 4//46 135//46 134//46
f 8//46 136//46 135//46
f 6//46 133//46 136//46
f 143//8 148//8 145//8
f 133//8 138//8 139//8
f 135//9 140//9 137//9
f 134//1 137//1 138//1
f 137//46 142//46 141//46
f 140//46 143//46 142//46
f 139//46 144//46 143//46
f 138//46 141//46 144//46
f 147//47 151//47 152//47
f 142//4 145//4 146//4
f 144//1 147//1 148//1
f 141//9 146//9 147//9
f 149//46 152//46 151//46
f 146//48 150//48 151//48
f 148//49 152//49 149//49
f 145//50 149//50 150//50
